# xmcd
#
# Track frame offsets: 
#        150
#        15915
#        28769
#        45053
#        57654
#        75418
#        90701
#        109446
#
# Disc length: 1607 seconds
#
# Revision: 0
# Processed by: cddbd v1.5.2PL0 Copyright (c) Steve Scherf et al.
# Submitted via: ExactAudioCopy v1.3
#
DISCID=55064508
DTITLE=Blueberry Hill - I Can See The Light
DYEAR=2019
DGENRE=Rockabilly Blues
TTITLE0=I Can See The Light
TTITLE1=Juvelie
TTITLE2=Hold On
TTITLE3=Automobile
TTITLE4=40 Days
TTITLE5=Long Way From You
TTITLE6=Nadine
TTITLE7=Git It
EXTD=
EXTT0=
EXTT1=
EXTT2=
EXTT3=
EXTT4=
EXTT5=
EXTT6=
EXTT7=
PLAYORDER=
